<svg xmlns="http://www.w3.org/2000/svg" fill="none" viewBox="-0.75 -0.75 64 64" id="Block-1--Streamline-Plump.svg" height="64" width="64"><desc>Block 1 Streamline Icon: https://streamlinehq.com</desc><g id="block-1--remove-circle-garbage-trash-delete"><path id="Union" fill="#fa8f91" fill-rule="evenodd" d="M58.59375 31.25c0 15.1015625 -12.242187499999998 27.34375 -27.34375 27.34375S3.90625 46.35156249999999 3.90625 31.25 16.148437499999996 3.90625 31.25 3.90625s27.34375 12.242187499999998 27.34375 27.34375ZM40.26940104166666 47.09518229166667C37.609765624999994 48.612369791666666 34.53111979166666 49.479166666666664 31.25 49.479166666666664c-10.067708333333332 0 -18.229166666666664 -8.161458333333332 -18.229166666666664 -18.229166666666664 0 -3.27890625 0.8656249999999999 -6.355598958333333 2.380989583333333 -9.013932291666666 3.761067708333333 4.012369791666667 8.700130208333333 9.232161458333334 12.008984374999999 12.540885416666665 3.345703125 3.3458333333333328 8.742838541666666 8.455989583333333 12.85859375 12.318229166666665Zm6.825390625 -6.825260416666666c-3.8622395833333334 -4.115625 -8.972526041666667 -9.512890625 -12.318359374999998 -12.858723958333334 -3.308723958333333 -3.308723958333333 -8.528515624999999 -8.247916666666665 -12.541015625 -12.008984374999999C24.894010416666667 13.886718749999998 27.97083333333333 13.020833333333332 31.25 13.020833333333332c10.067708333333332 0 18.229166666666664 8.161458333333332 18.229166666666664 18.229166666666664 0 3.2813802083333328 -0.8669270833333332 6.360156249999999 -2.384375 9.019921875Z" clip-rule="evenodd" stroke-width="1.5"></path><path id="Union_2" fill-rule="evenodd" stroke="#b00000" stroke-linecap="round" stroke-linejoin="round" d="M58.59375 31.25c0 15.1015625 -12.242187499999998 27.34375 -27.34375 27.34375S3.90625 46.35156249999999 3.90625 31.25 16.148437499999996 3.90625 31.25 3.90625s27.34375 12.242187499999998 27.34375 27.34375ZM40.26940104166666 47.09518229166667C37.609765624999994 48.612369791666666 34.53111979166666 49.479166666666664 31.25 49.479166666666664c-10.067708333333332 0 -18.229166666666664 -8.161458333333332 -18.229166666666664 -18.229166666666664 0 -3.27890625 0.8656249999999999 -6.355598958333333 2.380989583333333 -9.013932291666666 3.761067708333333 4.012369791666667 8.700130208333333 9.232161458333334 12.008984374999999 12.540885416666665 3.345703125 3.3458333333333328 8.742838541666666 8.455989583333333 12.85859375 12.318229166666665Zm6.825390625 -6.825260416666666c-3.8622395833333334 -4.115625 -8.972526041666667 -9.512890625 -12.318359374999998 -12.858723958333334 -3.308723958333333 -3.308723958333333 -8.528515624999999 -8.247916666666665 -12.541015625 -12.008984374999999C24.894010416666667 13.886718749999998 27.97083333333333 13.020833333333332 31.25 13.020833333333332c10.067708333333332 0 18.229166666666664 8.161458333333332 18.229166666666664 18.229166666666664 0 3.2813802083333328 -0.8669270833333332 6.360156249999999 -2.384375 9.019921875Z" clip-rule="evenodd" stroke-width="1.5"></path></g></svg>